<?xml version="1.0" ?><svg data-name="Layer 1" id="Layer_1" viewBox="0 0 64 64" xmlns="http://www.w3.org/2000/svg"><defs><style>.cls-1{fill:#0074ff;}.cls-2{fill:#ffb300;}</style></defs><title/><path class="cls-1" d="M8.21,55.2a2,2,0,0,1-2-2V14.8a2,2,0,0,1,2-2H39.33a2,2,0,0,1,0,4H10.21V50.37l8.67-3.06a2.12,2.12,0,0,1,.66-.11H53.79V16.8H49.62a2,2,0,0,1,0-4h6.17a2,2,0,0,1,2,2V49.2a2,2,0,0,1-2,2H19.89l-11,3.88A1.93,1.93,0,0,1,8.21,55.2Z"/><path class="cls-2" d="M45.9,28.94H18.1a2,2,0,0,1,0-4H45.9a2,2,0,0,1,0,4Z"/><path class="cls-2" d="M39.42,39.06H33.87a2,2,0,1,1,0-4h5.55a2,2,0,0,1,0,4Z"/><path class="cls-2" d="M26.23,39.06H18.1a2,2,0,0,1,0-4h8.13a2,2,0,1,1,0,4Z"/></svg>