<?xml version="1.0" ?><svg enable-background="new 0 0 32 32" version="1.1" viewBox="0 0 32 32" xml:space="preserve" xmlns="http://www.w3.org/2000/svg" xmlns:xlink="http://www.w3.org/1999/xlink"><g id="OUTLINE"><g><g><path d="M16,32.002l-4.047-7.46c-5.114-1.738-8.536-6.509-8.536-11.936C3.417,5.655,9.062,0,16,0s12.583,5.655,12.583,12.606     c0,5.427-3.422,10.197-8.537,11.936L16,32.002z M16,1C9.614,1,4.417,6.207,4.417,12.606c0,5.059,3.229,9.498,8.034,11.048     l0.19,0.062L16,29.904l3.357-6.188l0.19-0.062c4.806-1.55,8.035-5.989,8.035-11.048C27.583,6.207,22.387,1,16,1z"/></g><g><g><path d="M15.96,12.506c-0.374-0.347-0.789-0.833-0.969-1.263c-0.028-0.055-0.083-0.194,0-0.305      c0.166-0.222,0.194-0.236,0.374-0.444c0.125-0.153,0.222-0.291,0.18-0.416l-0.623-1.624c-0.056-0.111-0.222-0.125-0.415-0.139      c-0.166,0-0.346,0-0.471,0.028c-0.277,0.097-0.844,0.847-0.914,1.388c-0.152,1.179,0.914,2.748,1.979,3.719      c1.066,0.985,2.713,1.915,3.876,1.651c0.54-0.125,1.232-0.749,1.288-1.041c0.028-0.125,0.014-0.305-0.014-0.472      c-0.014-0.194-0.055-0.333-0.166-0.388l-1.412-0.653c-0.125-0.069-0.249-0.014-0.374,0.139      c-0.152,0.208-0.222,0.291-0.402,0.513c-0.097,0.125-0.166,0.208-0.277,0.222c-0.125,0.028-0.291-0.042-0.319-0.042      C16.86,13.228,16.347,12.853,15.96,12.506L15.96,12.506z M11.309,17.488l0.803-2.04c-0.886-1.027-1.426-2.373-1.426-3.844      c0-3.247,2.63-5.871,5.87-5.871c3.239,0,5.856,2.623,5.856,5.871c0,3.248-2.616,5.884-5.856,5.884      c-1.301,0-2.492-0.416-3.461-1.138L11.309,17.488z M10.326,15.49l-1.107,4.441l3.959-1.804c1.011,0.527,2.159,0.833,3.378,0.833      c4.042,0,7.323-3.289,7.323-7.356c0-4.052-3.281-7.342-7.323-7.342c-4.056,0-7.337,3.289-7.337,7.342      C9.218,13.033,9.633,14.366,10.326,15.49L10.326,15.49z"/></g></g></g></g></svg>