<?xml version="1.0" ?><svg enable-background="new 0 0 32 32" version="1.1" viewBox="0 0 32 32" xml:space="preserve" xmlns="http://www.w3.org/2000/svg" xmlns:xlink="http://www.w3.org/1999/xlink"><g id="OUTLINE"><g><g><path d="M16,32.002l-4.047-7.46c-5.114-1.738-8.536-6.509-8.536-11.936C3.417,5.655,9.062,0,16,0s12.583,5.655,12.583,12.606     c0,5.427-3.422,10.197-8.536,11.936L16,32.002z M16,1C9.613,1,4.417,6.207,4.417,12.606c0,5.059,3.229,9.498,8.034,11.048     l0.19,0.062L16,29.904l3.358-6.188l0.19-0.062c4.806-1.55,8.034-5.989,8.034-11.048C27.583,6.207,22.387,1,16,1z"/></g><g><path d="M16.436,5.218v3.495h3.489v2.185h-3.489v3.495c0,0.812,0.077,1.464,0.163,1.694c0.086,0.23,0.245,0.413,0.479,0.552     c0.31,0.186,0.663,0.28,1.061,0.28c0.708,0,1.531-0.241,2.221-0.778v2.185c-0.581,0.364-1.248,0.591-1.732,0.704     c-0.484,0.113-1.008,0.17-1.571,0.17c-0.588,0-1.156-0.065-1.695-0.243c-0.491-0.162-0.766-0.341-1.113-0.639     c-0.346-0.3-0.515-0.6-0.649-0.938c-0.134-0.336-0.218-1.035-0.218-1.675v-4.806h-1.744V8.713c0.559-0.041,1.02-0.199,1.41-0.531     c0.393-0.335,0.707-0.735,0.943-1.203c0.238-0.468,0.263-1.042,0.263-1.761H16.436z"/></g></g></g></svg>