<?xml version="1.0" ?><svg enable-background="new 0 0 32 32" version="1.1" viewBox="0 0 32 32" xml:space="preserve" xmlns="http://www.w3.org/2000/svg" xmlns:xlink="http://www.w3.org/1999/xlink"><g id="OUTLINE"><g><g><path d="M16,32.002l-4.047-7.46c-5.114-1.737-8.536-6.509-8.536-11.936C3.417,5.655,9.062,0,16,0     c6.938,0,12.583,5.655,12.583,12.606c0,5.427-3.422,10.197-8.536,11.936L16,32.002z M16,1C9.613,1,4.417,6.207,4.417,12.606     c0,5.059,3.229,9.498,8.035,11.048l0.191,0.062L16,29.904l3.358-6.188l0.19-0.062c4.806-1.55,8.034-5.989,8.034-11.048     C27.583,6.207,22.386,1,16,1z"/></g><g><path clip-rule="evenodd" d="M16.086,4.753c-3.464,0-6.202,2.91-6.202,6.422c0,3.668,4.815,9.14,6.202,9.14     c1.215,0,6.03-5.471,6.03-9.14C22.116,7.663,19.378,4.753,16.086,4.753z M16.106,14.512c-2.162,0-3.829-1.653-3.829-3.587     c0-0.896,0.303-1.695,0.799-2.335c0.007,0.795,0.658,1.438,1.461,1.438c0.808,0,1.462-0.65,1.462-1.451     c0-0.589-0.355-1.093-0.863-1.32c0.31-0.077,0.631-0.13,0.969-0.13c1.95,0,3.616,1.653,3.616,3.798     C19.723,12.858,18.056,14.512,16.106,14.512z" fill-rule="evenodd"/></g></g></g></svg>