<!-- icon666.com - MILLIONS vector ICONS FREE --><svg viewBox="0 0 42 60" xmlns="http://www.w3.org/2000/svg"><g id="Page-1" fill="none" fill-rule="evenodd"><g id="036---Letf-Click" fill-rule="nonzero"><path id="Shape" d="m41 25v20c0 3.7130309-1.4749958 7.2739856-4.1005051 9.8994949s-6.186464 4.1005051-9.8994949 4.1005051h-12c-7.7319865 0-14-6.2680135-14-14v-20h17v5c0 1.6568542 1.3431458 3 3 3s3-1.3431458 3-3v-5z" fill="#e8edfc"></path><path id="Shape" d="m38 25v20c0 7.7319865-6.2680135 14-14 14h3c3.7130309 0 7.2739856-1.4749958 9.8994949-4.1005051s4.1005051-6.186464 4.1005051-9.8994949v-20z" fill="#cad9fc"></path><path id="Shape" d="m18 33c.5279736-.0027317 1.0457023-.14597 1.5-.415-.9268768-.5308381-1.4990459-1.516876-1.5-2.585v-5h-3v5c0 1.6568542 1.3431458 3 3 3z" fill="#cad9fc"></path><path id="Shape" d="m41 11v14h-17v-5c0-1.6568542-1.3431458-3-3-3v-16h10c5.5228475 0 10 4.4771525 10 10z" fill="#e8edfc"></path><path id="Shape" d="m31 1h-3c5.5228475 0 10 4.4771525 10 10v14h3v-14c0-5.5228475-4.4771525-10-10-10z" fill="#cad9fc"></path><path id="Shape" d="m21 1v16c-1.6568542 0-3 1.3431458-3 3v5h-17v-14c0-5.5228475 4.4771525-10 10-10z" fill="#e8edfc"></path><path id="Shape" d="m18 1v16c-1.6568542 0-3 1.3431458-3 3v5h3v-5c0-1.6568542 1.3431458-3 3-3v-16z" fill="#cad9fc"></path><path id="Shape" d="m24 20v10c0 1.6568542-1.3431458 3-3 3s-3-1.3431458-3-3v-10c0-1.6568542 1.3431458-3 3-3s3 1.3431458 3 3z" fill="#e8edfc"></path><path id="Shape" d="m1 11v34c0 7.7319865 6.2680135 14 14 14h3c-7.7319865 0-14-6.2680135-14-14v-34c0-5.5228475 4.4771525-10 10-10h-3c-5.5228475 0-10 4.4771525-10 10z" fill="#fff"></path><path id="Shape" d="m4.074 52.026-1.681 1.084c-.77466564-1.2031322-1.37370222-2.5106415-1.779-3.883-.39115579-1.375549-.59763258-2.7970105-.614-4.227h2c.01609577 1.2394322.1953023 2.4713511.533 3.664.35117844 1.1882446.87007217 2.3203151 1.541 3.362z" fill="#fff"></path><g fill="#428dff"><path id="Shape" d="m1.593 47.954h-.01c-.55406325.0027566-1.00137518.4534192-.99999689 1.0074876s.45092678 1.0025 1.00499689 1.0025 1.0036186-.4484316 1.00499689-1.0025-.44593364-1.004731-.99999689-1.0074876z"></path><path id="Shape" d="m42 45v-34c-.0071635-6.07216255-4.9278374-10.9928365-11-11h-20c-6.07216255.0071635-10.9928365 4.92783745-11 11v34c0 .5522847.44771525 1 1 1s1-.4477153 1-1v-19h15v4c0 2.209139 1.790861 4 4 4s4-1.790861 4-4v-4h15v19c-.008266 7.1762751-5.8237249 12.991734-13 13h-12c-2.1734778-.0184846-4.3101091-.563365-6.227-1.588-1.90305281-1.053881-3.51725624-2.5602419-4.7-4.386-.30340948-.4415638-.89446028-.5771578-1.36-.312-.23751138.1348222-.40750696.3631686-.46854316.6293701-.06103621.2662015-.007505.5457994.14754316.7706299 1.36368907 2.1054176 3.22524815 3.8423003 5.42 5.057 2.2120472 1.1840115 4.6790683 1.8117496 7.188 1.829h12c8.2803876-.0093685 14.9906315-6.7196124 15-15zm-32.558-42.856-7.3 7.3c.66094393-3.72381336 3.57618664-6.63905607 7.3-7.3zm-7.442 10.27 10.414-10.414h3.172l-13.586 13.586zm0 6 16.414-16.414h1.586v1.586l-18 18zm.414 5.586 17.586-17.586v3.172l-14.414 14.414zm14.586 0h-2.586l2.586-2.586zm.521-5.935-5.935 5.935h-3.172l11.586-11.586v3.728c-1.0543064.2754893-1.9500138.9703039-2.479 1.923zm5.479 11.935c0 1.1045695-.8954305 2-2 2s-2-.8954305-2-2v-10c0-1.1045695.8954305-2 2-2s2 .8954305 2 2zm2-6v-4c-.0068148-1.8184116-1.2393149-3.4034067-3-3.858v-14.142h9c4.9682782.00551113 8.9944889 4.03172183 9 9v13z"></path><path id="Shape" d="m36 45c-.0055111 4.9682782-4.0317218 8.9944889-9 9h-5c-.5522847 0-1 .4477153-1 1s.4477153 1 1 1h5c6.0721626-.0071635 10.9928365-4.9278374 11-11v-3c0-.5522847-.4477153-1-1-1s-1 .4477153-1 1z"></path><path id="Shape" d="m5 30h1c.55228475 0 1-.4477153 1-1s-.44771525-1-1-1h-1c-.55228475 0-1 .4477153-1 1s.44771525 1 1 1z"></path><path id="Shape" d="m14 30c.5522847 0 1-.4477153 1-1s-.4477153-1-1-1h-4c-.55228475 0-1 .4477153-1 1s.44771525 1 1 1z"></path><path id="Shape" d="m37 39c.5522847 0 1-.4477153 1-1v-2c0-.5522847-.4477153-1-1-1s-1 .4477153-1 1v2c0 .5522847.4477153 1 1 1z"></path></g></g></g></svg>