<!-- icon666.com - MILLIONS vector ICONS FREE --><svg viewBox="0 0 42 60" xmlns="http://www.w3.org/2000/svg"><g id="Page-1" fill="none" fill-rule="evenodd"><g id="037---Right-Click" fill-rule="nonzero"><path id="Shape" d="m41 25v20c0 3.7130309-1.4749958 7.2739856-4.1005051 9.8994949s-6.186464 4.1005051-9.8994949 4.1005051h-12c-7.7319865 0-14-6.2680135-14-14v-20h17v5c0 1.6568542 1.3431458 3 3 3s3-1.3431458 3-3v-5z" fill="#e8edfc"></path><path id="Shape" d="m38 25v20c0 7.7319865-6.2680135 14-14 14h3c3.7130309 0 7.2739856-1.4749958 9.8994949-4.1005051s4.1005051-6.186464 4.1005051-9.8994949v-20z" fill="#cad9fc"></path><path id="Shape" d="m18 33c.5279736-.0027317 1.0457023-.14597 1.5-.415-.9268768-.5308381-1.4990459-1.516876-1.5-2.585v-5h-3v5c0 1.6568542 1.3431458 3 3 3z" fill="#cad9fc"></path><path id="Shape" d="m41 11v14h-17v-5c0-1.6568542-1.3431458-3-3-3v-16h10c5.5228475 0 10 4.4771525 10 10z" fill="#e8edfc"></path><path id="Shape" d="m31 1h-3c5.5228475 0 10 4.4771525 10 10v14h3v-14c0-5.5228475-4.4771525-10-10-10z" fill="#cad9fc"></path><path id="Shape" d="m21 1v16c-1.6568542 0-3 1.3431458-3 3v5h-17v-14c0-5.5228475 4.4771525-10 10-10z" fill="#e8edfc"></path><path id="Shape" d="m18 1v16c-1.6568542 0-3 1.3431458-3 3v5h3v-5c0-1.6568542 1.3431458-3 3-3v-16z" fill="#cad9fc"></path><path id="Shape" d="m24 20v10c0 1.6568542-1.3431458 3-3 3s-3-1.3431458-3-3v-10c0-1.6568542 1.3431458-3 3-3s3 1.3431458 3 3z" fill="#e8edfc"></path><path id="Shape" d="m15 59h3c-3.7130309 0-7.2739856-1.4749958-9.89949494-4.1005051-2.62550929-2.6255093-4.10050506-6.186464-4.10050506-9.8994949v-34c0-5.5228475 4.4771525-10 10-10h-3c-5.5228475 0-10 4.4771525-10 10v34c0 7.7319865 6.2680135 14 14 14z" fill="#fff"></path><path id="Shape" d="m4.074 52.026-1.681 1.084c-.77466564-1.2031322-1.37370222-2.5106415-1.779-3.883-.39115579-1.375549-.59763258-2.7970105-.614-4.227h2c.01609577 1.2394322.1953023 2.4713511.533 3.664.35117844 1.1882446.87007217 2.3203151 1.541 3.362z" fill="#fff"></path><g fill="#428dff"><path id="Shape" d="m1.593 47.954h-.01c-.55406325.0027566-1.00137518.4534192-.99999689 1.0074876s.45092678 1.0025 1.00499689 1.0025 1.0036186-.4484316 1.00499689-1.0025-.44593364-1.004731-.99999689-1.0074876z"></path><path id="Shape" d="m0 11v34c0 .5522847.44771525 1 1 1s1-.4477153 1-1v-19h15v4c0 2.209139 1.790861 4 4 4s4-1.790861 4-4v-4h15v19c-.008266 7.1762751-5.8237249 12.991734-13 13h-12c-2.1734778-.0184846-4.3101091-.563365-6.227-1.588-1.90305281-1.053881-3.51725624-2.5602419-4.7-4.386-.30340948-.4415638-.89446028-.5771578-1.36-.312-.23751138.1348222-.40750696.3631686-.46854316.6293701-.06103621.2662015-.007505.5457994.14754316.7706299 1.36368907 2.1054176 3.22524815 3.8423003 5.42 5.057 2.2120472 1.1840115 4.6790683 1.8117496 7.188 1.829h12c8.2803876-.0093685 14.9906315-6.7196124 15-15v-34c-.0005767-1.54248682-.3281083-3.06733231-.961-4.474-.0044023-.01061203-.0094105-.02096241-.015-.031-.6424172-1.42107641-1.5790407-2.6896763-2.748-3.722-.008-.009-.01-.021-.019-.03s-.033-.019-.048-.032c-1.9951846-1.74722961-4.5569116-2.71058678-7.209-2.711h-20c-6.07216255.0071635-10.9928365 4.92783745-11 11zm40 13h-3.586l3.586-3.586zm0-6.414-6.414 6.414h-3.172l9.586-9.586zm-.3-8.867c.1977582.74425212.2985918 1.5109237.3 2.281v.586l-12.414 12.414h-2.586v-.586zm-.8-2.03-13.9 13.897v-.586c-.0034834-.7118154-.1993989-1.4094405-.567-2.019l13.125-13.125c.5230185.55181516.9739488 1.16772818 1.342 1.833zm-16.9-4.689h3.586l-3.586 3.586zm0 6.414 6.414-6.414h2.586c.188 0 .372.017.557.028l-9.557 9.558zm0 6 11.918-11.914c.7503847.25539124 1.4635984.60913984 2.121 1.052l-13.02 13.02c-.317607-.1908318-.6606965-.3356095-1.019-.43zm.412 4.171c.3766388.3745261.5882848.8838442.588 1.415v10c0 1.1045695-.8954305 2-2 2s-2-.8954305-2-2v-10c.000575-.8080962.4873936-1.5364465 1.2338455-1.8460097.7464519-.3095631 1.6058513-.1395065 2.1781545.4310097zm-2.412-2.443c-1.7606851.4545933-2.9931852 2.0395884-3 3.858v4h-15v-13c.00551113-4.96827817 4.03172183-8.99448887 9-9h9z"></path><path id="Shape" d="m36 45c-.0055111 4.9682782-4.0317218 8.9944889-9 9h-5c-.5522847 0-1 .4477153-1 1s.4477153 1 1 1h5c6.0721626-.0071635 10.9928365-4.9278374 11-11v-3c0-.5522847-.4477153-1-1-1s-1 .4477153-1 1z"></path><path id="Shape" d="m5 30h1c.55228475 0 1-.4477153 1-1s-.44771525-1-1-1h-1c-.55228475 0-1 .4477153-1 1s.44771525 1 1 1z"></path><path id="Shape" d="m14 30c.5522847 0 1-.4477153 1-1s-.4477153-1-1-1h-4c-.55228475 0-1 .4477153-1 1s.44771525 1 1 1z"></path><path id="Shape" d="m37 39c.5522847 0 1-.4477153 1-1v-2c0-.5522847-.4477153-1-1-1s-1 .4477153-1 1v2c0 .5522847.4477153 1 1 1z"></path></g></g></g></svg>