<?xml version="1.0" ?><svg enable-background="new 0 0 32 32" version="1.1" viewBox="0 0 32 32" xml:space="preserve" xmlns="http://www.w3.org/2000/svg" xmlns:xlink="http://www.w3.org/1999/xlink"><g id="OUTLINE"><g><g><path d="M16,32l-4.047-7.458c-5.114-1.738-8.536-6.509-8.536-11.936C3.417,5.655,9.062-0.001,16-0.001     s12.583,5.656,12.583,12.607c0,5.427-3.422,10.197-8.536,11.936L16,32z M16,0.999c-6.387,0-11.583,5.207-11.583,11.607     c0,5.059,3.229,9.498,8.034,11.048l0.19,0.062L16,29.904l3.358-6.188l0.19-0.062c4.806-1.55,8.034-5.989,8.034-11.048     C27.583,6.206,22.387,0.999,16,0.999z"/></g><g><path d="M20.205,17.878h2.259c0-6.491-5.27-11.775-11.747-11.775v2.258C15.948,8.361,20.205,12.631,20.205,17.878z      M12.282,17.882c0.866,0,1.566-0.697,1.566-1.562c0-0.86-0.7-1.565-1.566-1.565c-0.863,0-1.564,0.705-1.564,1.565     C10.717,17.185,11.419,17.882,12.282,17.882z M16.211,17.879L16.211,17.879h2.262c0-4.287-3.48-7.774-7.756-7.774v2.257     c1.467,0,2.846,0.574,3.884,1.616C15.639,15.016,16.211,16.404,16.211,17.879z"/></g></g></g></svg>